<?xml version="1.0" standalone="no"?>
<!DOCTYPE svg PUBLIC "-//W3C//DTD SVG 20010904//EN"
 "http://www.w3.org/TR/2001/REC-SVG-20010904/DTD/svg10.dtd">
<svg version="1.0" xmlns="http://www.w3.org/2000/svg"
 width="18.000000pt" height="12.000000pt" viewBox="0 0 1255.000000 1280.000000"
 preserveAspectRatio="xMidYMid meet">
<g transform="translate(0.000000,1280.000000) scale(0.100000,-0.100000)"
fill="#000000" stroke="none">
<path d="M3219 12796 c-2 -3 -52 -10 -109 -15 -999 -102 -2108 -723 -2705
-1516 -149 -198 -272 -421 -330 -600 -51 -159 -88 -390 -69 -439 5 -13 10 -13
27 -5 23 12 939 540 2892 1668 649 375 1180 687 1180 694 0 7 -52 38 -115 69
-123 62 -252 100 -400 119 -47 5 -112 14 -146 20 -62 9 -217 13 -225 5z"/>
<path d="M3955 12145 c-83 -18 -130 -40 -301 -140 -185 -108 -234 -144 -291
-220 -134 -176 -160 -395 -72 -594 11 -25 745 -1303 1632 -2839 1131 -1959
1627 -2810 1661 -2848 60 -68 145 -127 234 -162 61 -24 79 -26 197 -26 158 0
189 10 385 121 233 132 298 183 366 290 41 63 80 177 89 258 7 73 -8 184 -35
257 -11 29 -748 1316 -1638 2858 l-1618 2805 -79 80 c-58 58 -99 89 -149 113
-121 59 -254 75 -381 47z"/>
<path d="M2535 11309 c-94 -14 -142 -34 -306 -127 -196 -111 -233 -137 -300
-209 -140 -152 -187 -381 -117 -578 16 -45 535 -954 1468 -2570 793 -1375
1522 -2637 1619 -2805 157 -273 183 -313 251 -381 164 -166 385 -217 606 -140
70 25 374 201 437 254 60 50 131 148 161 224 50 123 54 274 10 410 -21 64
-3236 5637 -3296 5713 -123 155 -336 239 -533 209z"/>
<path d="M1015 10454 c-70 -17 -123 -43 -313 -153 -162 -94 -233 -154 -291
-246 -104 -165 -120 -377 -42 -550 21 -45 2059 -3582 3108 -5395 69 -118 142
-239 164 -268 101 -134 282 -221 460 -222 70 0 190 30 261 66 71 36 281 158
334 195 116 80 205 225 231 377 14 83 14 101 0 182 -18 108 -41 158 -184 405
-61 105 -692 1198 -1403 2430 -711 1232 -1383 2395 -1492 2585 -110 190 -216
367 -236 393 -43 57 -136 130 -207 163 -116 54 -265 68 -390 38z"/>
<path d="M8087 5509 c-473 -220 -2456 -1349 -3542 -2017 -215 -132 -477 -306
-496 -328 -12 -15 -9 -20 25 -50 289 -250 3533 -2233 4129 -2525 90 -44 102
-48 110 -33 23 41 25 1443 3 2284 -4 124 -11 398 -16 610 -28 1069 -77 2045
-105 2091 -9 13 -12 12 -108 -32z"/>
<path d="M12131 460 c-49 -7 -78 -19 -129 -52 -64 -42 -68 -43 -147 -42 -44 0
-172 6 -285 13 -306 19 -454 2 -629 -71 -198 -82 -272 -108 -284 -101 -7 4
-29 26 -50 50 -88 98 -245 137 -384 95 -73 -23 -132 -56 -295 -167 -57 -39
-128 -79 -158 -89 l-55 -19 -78 33 c-42 17 -147 78 -232 135 -277 186 -310
195 -683 195 -177 0 -285 -5 -346 -15 -49 -8 -91 -17 -94 -20 -3 -3 74 -5 171
-5 276 0 358 -25 597 -184 262 -175 391 -216 670 -216 249 0 370 29 518 122
43 28 68 38 77 32 70 -52 55 -49 290 -49 210 0 224 1 317 28 53 15 179 62 280
105 l183 77 435 0 c428 0 436 0 475 22 91 49 90 52 -15 53 -52 1 -104 5 -115
9 -17 7 -14 10 20 19 22 6 67 14 100 18 78 9 115 22 64 23 -20 1 -63 3 -95 5
-32 3 -88 1 -123 -4z"/>
</g>
</svg>
